<svg xmlns="http://www.w3.org/2000/svg" xmlns:xlink="http://www.w3.org/1999/xlink" width="1080" zoomAndPan="magnify" viewBox="0 0 810 809.999993" height="1080" preserveAspectRatio="xMidYMid meet" version="1.0"><defs><g/></defs><path fill="#000000" d="M 323.425781 386.25 L 486.246094 386.25 C 486.859375 386.25 487.472656 386.28125 488.082031 386.339844 C 488.691406 386.402344 489.296875 386.492188 489.898438 386.609375 C 490.5 386.730469 491.09375 386.878906 491.679688 387.058594 C 492.265625 387.234375 492.84375 387.441406 493.410156 387.675781 C 493.976562 387.914062 494.53125 388.175781 495.070312 388.464844 C 495.609375 388.753906 496.136719 389.070312 496.644531 389.410156 C 497.15625 389.75 497.648438 390.117188 498.121094 390.507812 C 498.59375 390.894531 499.050781 391.308594 499.484375 391.742188 C 499.917969 392.175781 500.328125 392.628906 500.714844 393.105469 C 501.105469 393.578125 501.46875 394.074219 501.8125 394.582031 C 502.152344 395.09375 502.464844 395.621094 502.753906 396.160156 C 503.042969 396.703125 503.304688 397.257812 503.539062 397.824219 C 503.773438 398.390625 503.980469 398.96875 504.160156 399.558594 C 504.335938 400.144531 504.484375 400.738281 504.605469 401.34375 C 504.726562 401.945312 504.816406 402.550781 504.875 403.164062 C 504.9375 403.773438 504.964844 404.386719 504.964844 405 C 504.964844 405.613281 504.9375 406.226562 504.875 406.835938 C 504.816406 407.449219 504.726562 408.054688 504.605469 408.65625 C 504.484375 409.261719 504.335938 409.855469 504.160156 410.441406 C 503.980469 411.03125 503.773438 411.609375 503.539062 412.175781 C 503.304688 412.742188 503.042969 413.296875 502.753906 413.839844 C 502.464844 414.378906 502.152344 414.90625 501.8125 415.417969 C 501.46875 415.925781 501.105469 416.421875 500.714844 416.894531 C 500.328125 417.371094 499.917969 417.824219 499.484375 418.257812 C 499.050781 418.691406 498.59375 419.105469 498.121094 419.492188 C 497.648438 419.882812 497.15625 420.25 496.644531 420.589844 C 496.136719 420.929688 495.609375 421.246094 495.070312 421.535156 C 494.53125 421.824219 493.976562 422.085938 493.410156 422.324219 C 492.84375 422.558594 492.265625 422.765625 491.679688 422.941406 C 491.09375 423.121094 490.5 423.269531 489.898438 423.390625 C 489.296875 423.507812 488.691406 423.597656 488.082031 423.660156 C 487.472656 423.71875 486.859375 423.75 486.246094 423.75 L 323.425781 423.75 C 322.8125 423.75 322.199219 423.71875 321.589844 423.660156 C 320.980469 423.597656 320.375 423.507812 319.773438 423.390625 C 319.171875 423.269531 318.578125 423.121094 317.992188 422.941406 C 317.40625 422.765625 316.828125 422.558594 316.261719 422.324219 C 315.695312 422.085938 315.140625 421.824219 314.601562 421.535156 C 314.0625 421.246094 313.535156 420.929688 313.027344 420.589844 C 312.515625 420.25 312.023438 419.882812 311.550781 419.492188 C 311.078125 419.105469 310.621094 418.691406 310.1875 418.257812 C 309.753906 417.824219 309.34375 417.371094 308.957031 416.894531 C 308.566406 416.421875 308.203125 415.925781 307.859375 415.417969 C 307.519531 414.90625 307.207031 414.378906 306.917969 413.839844 C 306.628906 413.296875 306.367188 412.742188 306.132812 412.175781 C 305.898438 411.609375 305.691406 411.03125 305.511719 410.441406 C 305.335938 409.855469 305.1875 409.261719 305.066406 408.65625 C 304.945312 408.054688 304.855469 407.449219 304.796875 406.835938 C 304.734375 406.226562 304.707031 405.613281 304.707031 405 C 304.707031 404.386719 304.734375 403.773438 304.796875 403.164062 C 304.855469 402.550781 304.945312 401.945312 305.066406 401.34375 C 305.1875 400.738281 305.335938 400.144531 305.511719 399.558594 C 305.691406 398.96875 305.898438 398.390625 306.132812 397.824219 C 306.367188 397.257812 306.628906 396.703125 306.917969 396.160156 C 307.207031 395.621094 307.519531 395.09375 307.859375 394.582031 C 308.203125 394.074219 308.566406 393.578125 308.957031 393.105469 C 309.34375 392.628906 309.753906 392.175781 310.1875 391.742188 C 310.621094 391.308594 311.078125 390.894531 311.550781 390.507812 C 312.023438 390.117188 312.515625 389.75 313.027344 389.410156 C 313.535156 389.070312 314.0625 388.753906 314.601562 388.464844 C 315.140625 388.175781 315.695312 387.914062 316.261719 387.675781 C 316.828125 387.441406 317.40625 387.234375 317.992188 387.058594 C 318.578125 386.878906 319.171875 386.730469 319.773438 386.609375 C 320.375 386.492188 320.980469 386.402344 321.589844 386.339844 C 322.199219 386.28125 322.8125 386.25 323.425781 386.25 Z M 323.425781 386.25 " fill-opacity="1" fill-rule="nonzero"/><path fill="#23ed6c" d="M 342.246094 415.625 L 461.015625 415.625 L 461.015625 417.875 L 342.246094 417.875 Z M 342.246094 415.625 " fill-opacity="1" fill-rule="nonzero"/><g fill="#23ed6c" fill-opacity="1"><g transform="translate(342.244438, 414.123926)"><g><path d="M 15.578125 -23.921875 L 15.578125 -19.140625 L 7.1875 -19.140625 L 7.1875 -14.390625 L 14.9375 -14.390625 L 14.9375 -9.59375 L 7.1875 -9.59375 L 7.1875 0 L 1.734375 0 L 1.734375 -23.921875 Z M 15.578125 -23.921875 "/></g></g></g><g fill="#23ed6c" fill-opacity="1"><g transform="translate(357.232573, 414.123926)"><g><path d="M 16.796875 -6.734375 L 6 -6.734375 C 6 -5.679688 6.335938 -4.90625 7.015625 -4.40625 C 7.691406 -3.90625 8.425781 -3.65625 9.21875 -3.65625 C 10.050781 -3.65625 10.707031 -3.765625 11.1875 -3.984375 C 11.675781 -4.210938 12.226562 -4.65625 12.84375 -5.3125 L 16.5625 -3.453125 C 15.007812 -0.859375 12.4375 0.4375 8.84375 0.4375 C 6.601562 0.4375 4.679688 -0.328125 3.078125 -1.859375 C 1.472656 -3.398438 0.671875 -5.253906 0.671875 -7.421875 C 0.671875 -9.585938 1.472656 -11.441406 3.078125 -12.984375 C 4.679688 -14.535156 6.601562 -15.3125 8.84375 -15.3125 C 11.207031 -15.3125 13.125 -14.628906 14.59375 -13.265625 C 16.070312 -11.898438 16.8125 -9.953125 16.8125 -7.421875 C 16.8125 -7.078125 16.804688 -6.847656 16.796875 -6.734375 Z M 6.140625 -9.5625 L 11.796875 -9.5625 C 11.679688 -10.34375 11.378906 -10.941406 10.890625 -11.359375 C 10.398438 -11.773438 9.765625 -11.984375 8.984375 -11.984375 C 8.140625 -11.984375 7.460938 -11.757812 6.953125 -11.3125 C 6.453125 -10.863281 6.179688 -10.28125 6.140625 -9.5625 Z M 6.140625 -9.5625 "/></g></g></g><g fill="#23ed6c" fill-opacity="1"><g transform="translate(373.264419, 414.123926)"><g><path d="M 2.75 -1.84375 C 1.363281 -3.363281 0.671875 -5.222656 0.671875 -7.421875 C 0.671875 -9.628906 1.363281 -11.492188 2.75 -13.015625 C 4.144531 -14.546875 5.914062 -15.3125 8.0625 -15.3125 C 10.03125 -15.3125 11.65625 -14.691406 12.9375 -13.453125 L 12.9375 -14.875 L 18.0625 -14.875 L 18.0625 0 L 12.984375 0 L 12.984375 -1.6875 L 12.9375 -1.6875 C 11.65625 -0.269531 10.03125 0.4375 8.0625 0.4375 C 5.914062 0.4375 4.144531 -0.320312 2.75 -1.84375 Z M 7.125 -9.953125 C 6.457031 -9.296875 6.125 -8.453125 6.125 -7.421875 C 6.125 -6.398438 6.441406 -5.5625 7.078125 -4.90625 C 7.710938 -4.257812 8.550781 -3.9375 9.59375 -3.9375 C 10.601562 -3.9375 11.429688 -4.265625 12.078125 -4.921875 C 12.722656 -5.585938 13.046875 -6.421875 13.046875 -7.421875 C 13.046875 -8.453125 12.710938 -9.296875 12.046875 -9.953125 C 11.378906 -10.609375 10.5625 -10.9375 9.59375 -10.9375 C 8.613281 -10.9375 7.789062 -10.609375 7.125 -9.953125 Z M 7.125 -9.953125 "/></g></g></g><g fill="#23ed6c" fill-opacity="1"><g transform="translate(391.615644, 414.123926)"><g><path d="M 2.609375 -14.875 L 2.609375 -20.421875 L 7.75 -20.421875 L 7.75 -14.875 L 10.875 -14.875 L 10.875 -10.96875 L 7.75 -10.96875 L 7.75 -6.234375 C 7.75 -4.859375 8.132812 -4.171875 8.90625 -4.171875 C 9.09375 -4.171875 9.289062 -4.207031 9.5 -4.28125 C 9.71875 -4.363281 9.882812 -4.445312 10 -4.53125 L 10.171875 -4.640625 L 11.453125 -0.5 C 10.347656 0.125 9.09375 0.4375 7.6875 0.4375 C 6.71875 0.4375 5.882812 0.269531 5.1875 -0.0625 C 4.488281 -0.40625 3.960938 -0.863281 3.609375 -1.4375 C 3.253906 -2.007812 3 -2.609375 2.84375 -3.234375 C 2.6875 -3.859375 2.609375 -4.53125 2.609375 -5.25 L 2.609375 -10.96875 L 0.46875 -10.96875 L 0.46875 -14.875 Z M 2.609375 -14.875 "/></g></g></g><g fill="#23ed6c" fill-opacity="1"><g transform="translate(401.617115, 414.123926)"><g><path d="M 6.578125 -14.875 L 6.578125 -7.796875 C 6.578125 -6.328125 6.800781 -5.28125 7.25 -4.65625 C 7.695312 -4.039062 8.453125 -3.734375 9.515625 -3.734375 C 10.578125 -3.734375 11.328125 -4.039062 11.765625 -4.65625 C 12.210938 -5.28125 12.4375 -6.328125 12.4375 -7.796875 L 12.4375 -14.875 L 17.578125 -14.875 L 17.578125 -6.546875 C 17.578125 -4.078125 16.929688 -2.296875 15.640625 -1.203125 C 14.359375 -0.109375 12.316406 0.4375 9.515625 0.4375 C 6.710938 0.4375 4.664062 -0.109375 3.375 -1.203125 C 2.09375 -2.296875 1.453125 -4.078125 1.453125 -6.546875 L 1.453125 -14.875 Z M 6.578125 -14.875 "/></g></g></g><g fill="#23ed6c" fill-opacity="1"><g transform="translate(419.185547, 414.123926)"><g><path d="M 1.734375 0 L 1.734375 -14.875 L 6.875 -14.875 L 6.875 -12.734375 L 6.9375 -12.734375 C 6.96875 -12.804688 7.023438 -12.898438 7.109375 -13.015625 C 7.203125 -13.128906 7.394531 -13.332031 7.6875 -13.625 C 7.976562 -13.914062 8.285156 -14.175781 8.609375 -14.40625 C 8.941406 -14.644531 9.367188 -14.851562 9.890625 -15.03125 C 10.410156 -15.21875 10.941406 -15.3125 11.484375 -15.3125 C 12.046875 -15.3125 12.597656 -15.234375 13.140625 -15.078125 C 13.679688 -14.921875 14.078125 -14.765625 14.328125 -14.609375 L 14.734375 -14.390625 L 12.59375 -10.03125 C 11.945312 -10.570312 11.054688 -10.84375 9.921875 -10.84375 C 9.296875 -10.84375 8.757812 -10.707031 8.3125 -10.4375 C 7.875 -10.164062 7.5625 -9.835938 7.375 -9.453125 C 7.195312 -9.066406 7.066406 -8.738281 6.984375 -8.46875 C 6.910156 -8.195312 6.875 -7.984375 6.875 -7.828125 L 6.875 0 Z M 1.734375 0 "/></g></g></g><g fill="#23ed6c" fill-opacity="1"><g transform="translate(432.173217, 414.123926)"><g><path d="M 16.796875 -6.734375 L 6 -6.734375 C 6 -5.679688 6.335938 -4.90625 7.015625 -4.40625 C 7.691406 -3.90625 8.425781 -3.65625 9.21875 -3.65625 C 10.050781 -3.65625 10.707031 -3.765625 11.1875 -3.984375 C 11.675781 -4.210938 12.226562 -4.65625 12.84375 -5.3125 L 16.5625 -3.453125 C 15.007812 -0.859375 12.4375 0.4375 8.84375 0.4375 C 6.601562 0.4375 4.679688 -0.328125 3.078125 -1.859375 C 1.472656 -3.398438 0.671875 -5.253906 0.671875 -7.421875 C 0.671875 -9.585938 1.472656 -11.441406 3.078125 -12.984375 C 4.679688 -14.535156 6.601562 -15.3125 8.84375 -15.3125 C 11.207031 -15.3125 13.125 -14.628906 14.59375 -13.265625 C 16.070312 -11.898438 16.8125 -9.953125 16.8125 -7.421875 C 16.8125 -7.078125 16.804688 -6.847656 16.796875 -6.734375 Z M 6.140625 -9.5625 L 11.796875 -9.5625 C 11.679688 -10.34375 11.378906 -10.941406 10.890625 -11.359375 C 10.398438 -11.773438 9.765625 -11.984375 8.984375 -11.984375 C 8.140625 -11.984375 7.460938 -11.757812 6.953125 -11.3125 C 6.453125 -10.863281 6.179688 -10.28125 6.140625 -9.5625 Z M 6.140625 -9.5625 "/></g></g></g><g fill="#23ed6c" fill-opacity="1"><g transform="translate(448.205061, 414.123926)"><g><path d="M 8.203125 -15.3125 C 9.054688 -15.3125 9.898438 -15.210938 10.734375 -15.015625 C 11.566406 -14.828125 12.1875 -14.632812 12.59375 -14.4375 L 13.1875 -14.15625 L 11.515625 -10.78125 C 10.347656 -11.40625 9.242188 -11.71875 8.203125 -11.71875 C 7.628906 -11.71875 7.21875 -11.65625 6.96875 -11.53125 C 6.726562 -11.40625 6.609375 -11.164062 6.609375 -10.8125 C 6.609375 -10.738281 6.617188 -10.660156 6.640625 -10.578125 C 6.660156 -10.503906 6.695312 -10.429688 6.75 -10.359375 C 6.8125 -10.296875 6.863281 -10.238281 6.90625 -10.1875 C 6.957031 -10.144531 7.039062 -10.09375 7.15625 -10.03125 C 7.28125 -9.976562 7.375 -9.9375 7.4375 -9.90625 C 7.507812 -9.875 7.617188 -9.828125 7.765625 -9.765625 C 7.921875 -9.710938 8.035156 -9.671875 8.109375 -9.640625 C 8.191406 -9.609375 8.320312 -9.5625 8.5 -9.5 C 8.6875 -9.445312 8.832031 -9.410156 8.9375 -9.390625 C 9.53125 -9.222656 10.050781 -9.03125 10.5 -8.8125 C 10.945312 -8.601562 11.414062 -8.3125 11.90625 -7.9375 C 12.394531 -7.570312 12.773438 -7.109375 13.046875 -6.546875 C 13.316406 -5.992188 13.453125 -5.359375 13.453125 -4.640625 C 13.453125 -1.253906 11.101562 0.4375 6.40625 0.4375 C 5.34375 0.4375 4.332031 0.273438 3.375 -0.046875 C 2.414062 -0.378906 1.726562 -0.710938 1.3125 -1.046875 L 0.671875 -1.5625 L 2.75 -5.078125 C 2.90625 -4.941406 3.109375 -4.78125 3.359375 -4.59375 C 3.609375 -4.414062 4.0625 -4.164062 4.71875 -3.84375 C 5.382812 -3.519531 5.957031 -3.359375 6.4375 -3.359375 C 7.5 -3.359375 8.03125 -3.71875 8.03125 -4.4375 C 8.03125 -4.769531 7.894531 -5.023438 7.625 -5.203125 C 7.351562 -5.390625 6.894531 -5.597656 6.25 -5.828125 C 5.601562 -6.054688 5.097656 -6.269531 4.734375 -6.46875 C 3.796875 -6.945312 3.054688 -7.488281 2.515625 -8.09375 C 1.984375 -8.707031 1.71875 -9.519531 1.71875 -10.53125 C 1.71875 -12.03125 2.300781 -13.203125 3.46875 -14.046875 C 4.632812 -14.890625 6.210938 -15.3125 8.203125 -15.3125 Z M 8.203125 -15.3125 "/></g></g></g></svg>